{"title":"Eurovision.Song.Contest.2016.SF2.EBU-FEED.reenc.720p.AC3-icecube","uid":14619212,"size":3510847013,"categoryP":"video","categoryS":"hd___tv_shows","magnet":"?xt=urn:btih:985f1ede507f1ea07fdc810cb663e8b0db81cfa9&amp;dn=Eurovision.Song.Contest.2016.SF2.EBU-FEED.reenc.720p.AC3-icecube&amp;tr=udp%3A%2F%2Ftracker.leechers-paradise.org%3A6969&amp;tr=udp%3A%2F%2Fzer0day.ch%3A1337&amp;tr=udp%3A%2F%2Fopen.demonii.com%3A1337&amp;tr=udp%3A%2F%2Ftracker.coppersurfer.tk%3A6969&amp;tr=udp%3A%2F%2Fexodus.desync.com%3A6969","seeders":0,"leechers":1,"uploader":"iceqbeic","files":2,"time":1463245973,"description":"This is the 720p re-encode of the original 1920*1080i EBU feed transport stream posted. Size really doesn't matter! ;)\r\n\r\nOriginal feed ts posted by Anonymous as: Eurovision Song Contest 2016: Stockholm (2nd SF) [FEED 1080i]\r\n\r\nWORDS OF CAUTION WHEN PLAYING BACK!\r\n\r\nMedia player tests/comparison. Players used:\r\nVLC 2.2.1\r\nMS Media player Ver. 12.07601.19148\r\nMPC+HC Media Player Classic with CCCP:MPC 64-bit 1.7.8.162/CCCP Raise Your Flag 2015-10-18\r\n\r\nPlaying back my 720p re-encode:\r\nMPC: No colour issues. No discernible image/sound sync issues at the end.\r\nVLC: Colour issues, but lesser. No jump issues. No artifacts. No sync issues.\r\nMS Media Player: Opens in small window but will go full screen. No colour, jump or sync issues. behaves well.\r\n\r\nRecommended media player is still the CCCP package with the Media Player Classic found at http://www.cccp-project.net/\r\n\r\nGeneral\r\nComplete name                  : Eurovision.Song.Contest.2016.SF2.EBU-FEED.reenc.720p.AC3-icecube.mp4\r\nFormat                         : MPEG-4\r\nFormat profile                 : Base Media / Version 2\r\nCodec ID                       : mp42\r\nFile size                      : 3.27 GiB\r\nDuration                       : 2h 5mn\r\nOverall bit rate               : 3 744 Kbps\r\nEncoded date                   : UTC 2036-02-06 06:28:16\r\nTagged date                    : UTC 2036-02-06 06:28:16\r\nWriting application            : HandBrake 0.10.2 2015060900\r\n\r\nVideo\r\nID                             : 1\r\nFormat                         : AVC\r\nFormat/Info                    : Advanced Video Codec\r\nFormat profile                 :   \r\nFormat settings, CABAC         : Yes\r\nFormat settings, ReFrames      : 4 frames\r\nCodec ID                       : avc1\r\nCodec ID/Info                  : Advanced Video Coding\r\nDuration                       : 2h 5mn\r\nBit rate                       : 3 292 Kbps\r\nWidth                          : 1 280 pixels\r\nHeight                         : 720 pixels\r\nDisplay aspect ratio           : 16:9\r\nFrame rate mode                : Constant\r\nFrame rate                     : 25.000 fps\r\nColor space                    : YUV\r\nChroma subsampling             : 4:2:0\r\nBit depth                      : 8 bits\r\nScan type                      : Progressive\r\nBits/(Pixel*Frame)             : 0.143\r\nStream size                    : 2.87 GiB (88%)\r\nWriting library                : x264 core 142 r2479 dd79a61\r\nEncoded date                   : UTC 2036-02-06 06:28:16\r\nTagged date                    : UTC 2036-02-06 06:28:16\r\nColor range                    : Limited\r\nColor primaries                : BT.709\r\nTransfer characteristics       : BT.709\r\nMatrix coefficients            : BT.709\r\n\r\nAudio\r\nID                             : 2\r\nFormat                         : AC-3\r\nFormat/Info                    : Audio Coding 3\r\nMode extension                 : CM (complete main)\r\nFormat settings, Endianness    : Big\r\nCodec ID                       : ac-3\r\nDuration                       : 2h 5mn\r\nBit rate mode                  : Constant\r\nBit rate                       : 448 Kbps\r\nChannel(s)                     : 6 channels\r\nChannel positions              : Front: L C R, Side: L R, LFE\r\nSampling rate                  : 48.0 KHz\r\nBit depth                      : 16 bits\r\nCompression mode               : Lossy\r\nStream size                    : 401 MiB (12%)\r\nTitle                          : Surround / Surround\r\nEncoded date                   : UTC 2036-02-06 06:28:16\r\nTagged date                    : UTC 2036-02-06 06:28:16","torrent":{"xt":"urn:btih:985f1ede507f1ea07fdc810cb663e8b0db81cfa9","amp;dn":"Eurovision.Song.Contest.2016.SF2.EBU-FEED.reenc.720p.AC3-icecube","amp;tr":["udp%3A%2F%2Ftracker.leechers-paradise.org%3A6969","udp%3A%2F%2Fzer0day.ch%3A1337","udp%3A%2F%2Fopen.demonii.com%3A1337","udp%3A%2F%2Ftracker.coppersurfer.tk%3A6969","udp%3A%2F%2Fexodus.desync.com%3A6969"],"infoHash":"985f1ede507f1ea07fdc810cb663e8b0db81cfa9","infoHashBuffer":{"type":"Buffer","data":[152,95,30,222,80,127,30,160,127,220,129,12,182,99,232,176,219,129,207,169]},"announce":[],"urlList":[]}}